<svg xmlns="http://www.w3.org/2000/svg" xmlns:xlink="http://www.w3.org/1999/xlink" viewBox="0 0 32 32"><defs><path id="a" d="M.149.598h8.143V10H.149z"/><path id="c" d="M0 10.076h32V.666H0z"/></defs><g fill="none" fill-rule="evenodd" transform="translate(0 11)"><g transform="translate(6 .076)"><mask id="b" fill="#fff"><use xlink:href="#a"/></mask><path fill="#0B0B0B" d="M4.83 6.06H7.3v1.48C7.27 7.78 6.67 9 4.52 9 2.3 9 1.14 7.1 1.14 5.22c0-2.44 1.09-3.63 3.32-3.63 2.45 0 2.7 1.6 2.72 1.68l.49-.07.5-.05C8.05 2.26 7.14.6 4.45.6 1.68.6.15 2.24.15 5.22.15 7.6 1.65 10 4.52 10c2.84 0 3.77-1.82 3.77-2.45V5.07H4.83v1z" mask="url(#b)"/></g><path fill="#0B0B0B" d="M20 8.96c-1.78 0-2.97-1.44-2.97-3.59 0-2.49 1-3.7 3.06-3.7 2.1 0 2.6 1.67 2.61 1.74l.48-.13.48-.13A3.58 3.58 0 0020.1.67c-2.61 0-4.05 1.67-4.05 4.7 0 2.7 1.63 4.58 3.96 4.58 2.19 0 3.85-1.94 3.85-2.9h-1c0 .36-1.18 1.9-2.85 1.9M32 1.667V.675h-6.355v9.039H32v-.993h-5.362v-3.03h4.921v-.993h-4.921V1.667z"/><mask id="d" fill="#fff"><use xlink:href="#c"/></mask><path fill="#26963B" mask="url(#d)" d="M0 10.076h2.173V.666H0z"/></g></svg>